<svg width="22" height="22" viewBox="0 0 22 22" fill="none" xmlns="http://www.w3.org/2000/svg">
<path d="M17.4167 1.83325H4.58337C3.85403 1.83325 3.15456 2.12298 2.63883 2.63871C2.12311 3.15443 1.83337 3.85391 1.83337 4.58325V17.4166C1.83337 18.1459 2.12311 18.8454 2.63883 19.3611C3.15456 19.8769 3.85403 20.1666 4.58337 20.1666H17.4167C17.5675 20.1645 17.7178 20.1491 17.8659 20.1208L18.1409 20.0566H18.205H18.2509L18.59 19.9283L18.7092 19.8641C18.8009 19.8091 18.9017 19.7633 18.9934 19.6991C19.1158 19.609 19.2321 19.511 19.3417 19.4058L19.4059 19.3233C19.4959 19.2321 19.5786 19.134 19.6534 19.0299L19.7359 18.9108C19.7999 18.8087 19.8551 18.7014 19.9009 18.5899C19.926 18.5459 19.9475 18.4999 19.965 18.4524C20.0109 18.3424 20.0384 18.2233 20.075 18.1041V17.9666C20.127 17.7875 20.1578 17.6029 20.1667 17.4166V4.58325C20.1667 3.85391 19.877 3.15443 19.3613 2.63871C18.8455 2.12298 18.1461 1.83325 17.4167 1.83325ZM4.58337 18.3333C4.34026 18.3333 4.1071 18.2367 3.93519 18.0648C3.76328 17.8929 3.66671 17.6597 3.66671 17.4166V13.4658L6.68254 10.4408C6.76776 10.3548 6.86914 10.2866 6.98085 10.2401C7.09255 10.1936 7.21236 10.1696 7.33337 10.1696C7.45438 10.1696 7.5742 10.1936 7.6859 10.2401C7.79761 10.2866 7.89899 10.3548 7.98421 10.4408L15.8675 18.3333H4.58337ZM18.3334 17.4166C18.3325 17.5296 18.3108 17.6415 18.2692 17.7466C18.2483 17.7913 18.2237 17.8342 18.1959 17.8749C18.1713 17.9137 18.1438 17.9505 18.1134 17.9849L13.2092 13.0808L14.0159 12.2741C14.1011 12.1882 14.2025 12.12 14.3142 12.0734C14.4259 12.0269 14.5457 12.0029 14.6667 12.0029C14.7877 12.0029 14.9075 12.0269 15.0192 12.0734C15.1309 12.12 15.2323 12.1882 15.3175 12.2741L18.3334 15.2991V17.4166ZM18.3334 12.7049L16.61 10.9999C16.0855 10.5022 15.3899 10.2247 14.6667 10.2247C13.9436 10.2247 13.248 10.5022 12.7234 10.9999L11.9167 11.8066L9.27671 9.16659C8.75212 8.66883 8.05653 8.39134 7.33337 8.39134C6.61022 8.39134 5.91463 8.66883 5.39004 9.16659L3.66671 10.8716V4.58325C3.66671 4.34014 3.76328 4.10698 3.93519 3.93507C4.1071 3.76316 4.34026 3.66659 4.58337 3.66659H17.4167C17.6598 3.66659 17.893 3.76316 18.0649 3.93507C18.2368 4.10698 18.3334 4.34014 18.3334 4.58325V12.7049ZM12.375 5.49992C12.1031 5.49992 11.8372 5.58056 11.6111 5.73165C11.385 5.88274 11.2088 6.09748 11.1047 6.34873C11.0006 6.59998 10.9734 6.87644 11.0265 7.14317C11.0795 7.40989 11.2105 7.65489 11.4028 7.84719C11.5951 8.03949 11.8401 8.17044 12.1068 8.2235C12.3735 8.27655 12.65 8.24932 12.9012 8.14525C13.1525 8.04118 13.3672 7.86494 13.5183 7.63883C13.6694 7.41271 13.75 7.14687 13.75 6.87492C13.75 6.51025 13.6052 6.16051 13.3473 5.90265C13.0895 5.64478 12.7397 5.49992 12.375 5.49992Z" fill="#1E3354"/>
</svg>
